<svg width="26" height="44" viewBox="0 0 26 44" fill="none" xmlns="http://www.w3.org/2000/svg">
<path d="M23.0784 21.3203C24.2367 20.7773 24.9141 19.9448 24.9141 18.6572C24.9141 16.2475 20.5135 5.97257 16.1181 1.64957C15.3425 0.884251 14.1635 0.0103421 12.9949 0C11.821 0.0103421 10.6472 0.884251 9.87152 1.64957C5.47095 5.97257 1.07556 16.2475 1.07556 18.6572C1.07556 19.9448 1.74782 20.7773 2.9113 21.3203C1.179 25.664 0 29.5164 0 31.0832C0 36.3577 5.82261 36.4197 13 36.4197C20.1775 36.4197 26 36.3577 26 31.0832C25.9845 29.5164 24.8055 25.664 23.0784 21.3203Z" fill="#047857"/>
<path d="M22.3958 25.4416C22.3958 25.8966 22.0287 26.2689 21.5684 26.2689H21.1289C17.3489 26.2689 15.0167 28.5597 15.0167 32.5518V42.718C15.0167 43.1731 14.6496 43.5454 14.1893 43.5454H11.852C11.397 43.5454 11.0247 43.1783 11.0247 42.718V23.6576C11.0247 23.2025 11.3918 22.8302 11.852 22.8302H13.998C14.4272 22.8302 14.784 23.1611 14.8202 23.5903C14.8771 24.2833 15.7252 24.6142 16.2164 24.1178C17.2972 23.0267 18.8691 22.3648 20.7876 22.3648C21.2892 22.3648 21.2168 22.4062 21.7081 22.4889C22.1011 22.5561 22.3906 22.9026 22.3906 23.3008V25.4416H22.3958Z" fill="black"/>
<path opacity="0.8" d="M6.76888 27.4583C9.40095 27.4583 11.3763 28.6993 12.3329 30.6023C12.3898 30.716 12.4157 30.8453 12.4157 30.9746V32.5362C12.4157 33.2705 11.5055 33.6584 11.0039 33.1154C9.94388 31.9726 8.38223 31.3624 6.42757 31.3624H5.47094C5.01589 31.3624 4.64359 30.9953 4.64359 30.5351V28.3943C4.64359 27.9961 4.93314 27.6445 5.32614 27.5824C5.82256 27.4997 6.26212 27.4583 6.76888 27.4583Z" fill="black"/>
</svg>
